<svg xmlns="http://www.w3.org/2000/svg" width="179" height="4" fill="none" viewBox="0 0 179 4"><rect width="1" height="4" fill="#24292D"/><rect width="1" height="4" x="3" fill="#24292D"/><rect width="1" height="4" x="6" fill="#24292D"/><rect width="1" height="4" x="9" fill="#24292D"/><rect width="1" height="4" x="12" fill="#24292D"/><rect width="1" height="4" x="15" fill="#24292D"/><rect width="1" height="4" x="18" fill="#24292D"/><rect width="1" height="4" x="21" fill="#24292D"/><rect width="1" height="4" x="24" fill="#24292D"/><rect width="1" height="4" x="27" fill="#24292D"/><rect width="1" height="4" x="30" fill="#24292D"/><rect width="1" height="4" x="33" fill="#24292D"/><rect width="1" height="4" x="36" fill="#24292D"/><rect width="1" height="4" x="39" fill="#24292D"/><rect width="1" height="4" x="42" fill="#24292D"/><rect width="1" height="4" x="45" fill="#24292D"/><rect width="1" height="4" x="48" fill="#24292D"/><rect width="1" height="4" x="51" fill="#24292D"/><rect width="1" height="4" x="54" fill="#24292D"/><rect width="1" height="4" x="57" fill="#24292D"/><rect width="1" height="4" x="60" fill="#24292D"/><rect width="1" height="4" x="63" fill="#24292D"/><rect width="1" height="4" x="66" fill="#24292D"/><rect width="1" height="4" x="69" fill="#24292D"/><rect width="1" height="4" x="72" fill="#24292D"/><rect width="1" height="4" x="75" fill="#24292D"/><rect width="1" height="4" x="78" fill="#24292D"/><rect width="1" height="4" x="81" fill="#24292D"/><rect width="1" height="4" x="84" fill="#24292D"/><rect width="1" height="4" x="87" fill="#24292D"/><rect width="1" height="4" x="90" fill="#24292D"/><rect width="1" height="4" x="93" fill="#24292D"/><rect width="1" height="4" x="96" fill="#24292D"/><rect width="1" height="4" x="99" fill="#24292D"/><rect width="1" height="4" x="102" fill="#24292D"/><rect width="1" height="4" x="105" fill="#24292D"/><rect width="1" height="4" x="108" fill="#24292D"/><rect width="1" height="4" x="111" fill="#24292D"/><rect width="1" height="4" x="114" fill="#24292D"/><rect width="1" height="4" x="117" fill="#24292D"/><rect width="1" height="4" x="120" fill="#24292D"/><rect width="1" height="4" x="123" fill="#24292D"/><rect width="1" height="4" x="126" fill="#24292D"/><rect width="1" height="4" x="129" fill="#24292D"/><rect width="1" height="4" x="132" fill="#24292D"/><rect width="1" height="4" x="135" fill="#24292D"/><rect width="1" height="4" x="138" fill="#24292D"/><rect width="1" height="4" x="141" fill="#24292D"/><rect width="1" height="4" x="144" fill="#24292D"/><rect width="1" height="4" x="147" fill="#24292D"/><rect width="1" height="4" x="150" fill="#24292D"/><rect width="1" height="4" x="153" fill="#24292D"/><rect width="1" height="4" x="156" fill="#24292D"/><rect width="1" height="4" x="159" fill="#24292D"/><rect width="1" height="4" x="162" fill="#24292D"/><rect width="1" height="4" x="165" fill="#24292D"/><rect width="1" height="4" x="168" fill="#24292D"/><rect width="1" height="4" x="171" fill="#24292D"/><rect width="1" height="4" x="174" fill="#24292D"/><rect width="1" height="4" x="177" fill="#24292D"/></svg>