<svg xmlns="http://www.w3.org/2000/svg" width="179" height="4" fill="none" viewBox="0 0 179 4"><rect width="1" height="4" fill="#B9DFF5"/><rect width="1" height="4" x="3" fill="#B9DFF5"/><rect width="1" height="4" x="6" fill="#B9DFF5"/><rect width="1" height="4" x="9" fill="#B9DFF5"/><rect width="1" height="4" x="12" fill="#B9DFF5"/><rect width="1" height="4" x="15" fill="#B9DFF5"/><rect width="1" height="4" x="18" fill="#B9DFF5"/><rect width="1" height="4" x="21" fill="#B9DFF5"/><rect width="1" height="4" x="24" fill="#B9DFF5"/><rect width="1" height="4" x="27" fill="#B9DFF5"/><rect width="1" height="4" x="30" fill="#B9DFF5"/><rect width="1" height="4" x="33" fill="#B9DFF5"/><rect width="1" height="4" x="36" fill="#B9DFF5"/><rect width="1" height="4" x="39" fill="#B9DFF5"/><rect width="1" height="4" x="42" fill="#B9DFF5"/><rect width="1" height="4" x="45" fill="#B9DFF5"/><rect width="1" height="4" x="48" fill="#B9DFF5"/><rect width="1" height="4" x="51" fill="#B9DFF5"/><rect width="1" height="4" x="54" fill="#B9DFF5"/><rect width="1" height="4" x="57" fill="#B9DFF5"/><rect width="1" height="4" x="60" fill="#B9DFF5"/><rect width="1" height="4" x="63" fill="#B9DFF5"/><rect width="1" height="4" x="66" fill="#B9DFF5"/><rect width="1" height="4" x="69" fill="#B9DFF5"/><rect width="1" height="4" x="72" fill="#B9DFF5"/><rect width="1" height="4" x="75" fill="#B9DFF5"/><rect width="1" height="4" x="78" fill="#B9DFF5"/><rect width="1" height="4" x="81" fill="#B9DFF5"/><rect width="1" height="4" x="84" fill="#B9DFF5"/><rect width="1" height="4" x="87" fill="#B9DFF5"/><rect width="1" height="4" x="90" fill="#B9DFF5"/><rect width="1" height="4" x="93" fill="#B9DFF5"/><rect width="1" height="4" x="96" fill="#B9DFF5"/><rect width="1" height="4" x="99" fill="#B9DFF5"/><rect width="1" height="4" x="102" fill="#B9DFF5"/><rect width="1" height="4" x="105" fill="#B9DFF5"/><rect width="1" height="4" x="108" fill="#B9DFF5"/><rect width="1" height="4" x="111" fill="#B9DFF5"/><rect width="1" height="4" x="114" fill="#B9DFF5"/><rect width="1" height="4" x="117" fill="#B9DFF5"/><rect width="1" height="4" x="120" fill="#B9DFF5"/><rect width="1" height="4" x="123" fill="#B9DFF5"/><rect width="1" height="4" x="126" fill="#B9DFF5"/><rect width="1" height="4" x="129" fill="#B9DFF5"/><rect width="1" height="4" x="132" fill="#B9DFF5"/><rect width="1" height="4" x="135" fill="#B9DFF5"/><rect width="1" height="4" x="138" fill="#B9DFF5"/><rect width="1" height="4" x="141" fill="#B9DFF5"/><rect width="1" height="4" x="144" fill="#B9DFF5"/><rect width="1" height="4" x="147" fill="#B9DFF5"/><rect width="1" height="4" x="150" fill="#B9DFF5"/><rect width="1" height="4" x="153" fill="#B9DFF5"/><rect width="1" height="4" x="156" fill="#B9DFF5"/><rect width="1" height="4" x="159" fill="#B9DFF5"/><rect width="1" height="4" x="162" fill="#B9DFF5"/><rect width="1" height="4" x="165" fill="#B9DFF5"/><rect width="1" height="4" x="168" fill="#B9DFF5"/><rect width="1" height="4" x="171" fill="#B9DFF5"/><rect width="1" height="4" x="174" fill="#B9DFF5"/><rect width="1" height="4" x="177" fill="#B9DFF5"/></svg>