<svg xmlns="http://www.w3.org/2000/svg" xmlns:xlink="http://www.w3.org/1999/xlink" width="400" height="80" version="1.1" viewBox="0 0 400 80"><g id="Page-1" fill="none" fill-rule="evenodd" stroke="none" stroke-width="1"><g id="wallet-bg" transform="translate(-0.000000, 0.000000)"><rect id="Rectangle" width="399" height="79" x=".5" y=".5" stroke="#86B9D6"/><polygon id="Path" fill="#0B5E8E" points="1 0 0 0 0 1 0 4 1 4 1 1 4 1 4 0"/><polygon id="Path" fill="#0B5E8E" points="399 0 400 0 400 1 400 4 399 4 399 1 396 1 396 0"/><polygon id="Path" fill="#0B5E8E" points="0 79 0 80 1 80 4 80 4 79 1 79 1 76 0 76"/><polygon id="Path" fill="#0B5E8E" points="400 79 400 80 399 80 396 80 396 79 399 79 399 76 400 76"/></g></g></svg>