<svg xmlns="http://www.w3.org/2000/svg" xmlns:xlink="http://www.w3.org/1999/xlink" width="400" height="136" version="1.1" viewBox="0 0 400 136"><defs><polygon id="path-0qne_92uwn-1" points="16 0 0 16 0 40 0 135 400 135 400 40 400 16 400 0"/></defs><g id="Page-1" fill="none" fill-rule="evenodd" stroke="none" stroke-width="1"><g id="withdraw-tokens--dark" transform="translate(0.000000, 0.989746)"><polygon id="Path" fill="#2D3741" points="16 .01 0 16.01 400 16.01 400 .01"/><rect id="Rectangle" width="400" height="24" x="0" y="16.01" fill="#2D3741" fill-rule="nonzero"/><rect id="Rectangle" width="400" height="94" x="0" y="41.01" fill="#24292D" fill-rule="nonzero"/><g id="Clipped" transform="translate(0.000000, 0.010254)"><mask id="mask-0qne_92uwn-2" fill="#fff"><use xlink:href="#path-0qne_92uwn-1"/></mask><path id="Shape" fill="#5F7285" fill-rule="nonzero" d="M0,16 L-0.707107,15.2929 L-1,15.5858 L-1,16 L0,16 Z M16,0 L16,-1 L15.5858,-1 L15.2929,-0.707107 L16,0 Z M0,135 L-1,135 L-1,136 L0,136 L0,135 Z M400,135 L400,136 L401,136 L401,135 L400,135 Z M400,0 L401,0 L401,-1 L400,-1 L400,0 Z M0.707107,16.7071 L16.7071,0.707107 L15.292893,-0.707107 L-0.707107,15.292893 L0.707107,16.7071 Z M1,40 L1,16 L-1,16 L-1,40 L1,40 Z M1,135 L1,40 L-1,40 L-1,135 L1,135 Z M400,134 L0,134 L0,136 L400,136 L400,134 Z M399,40 L399,135 L401,135 L401,40 L399,40 Z M399,16 L399,40 L401,40 L401,16 L399,16 Z M399,0 L399,16 L401,16 L401,0 L399,0 Z M16,1 L400,1 L400,-1 L16,-1 L16,1 Z" mask="url(#mask-0qne_92uwn-2)"/></g><rect id="Rectangle" width="400" height="1" x=".004" y="40.01" fill="#5F7285" fill-rule="nonzero"/><rect id="Rectangle" width="135" height="1" x="62.966" y="67.045" fill="#5F7285" fill-rule="nonzero" transform="translate(130.465520, 67.510254) rotate(-90.000000) translate(-130.465520, -67.510254)"/><polygon id="Path" fill="#4CADE6" points="1.002 37.01 .002 37.01 .002 40.01 .002 41.01 .002 44.01 1.002 44.01 1.002 41.01 4.002 41.01 4.002 40.01 1.002 40.01"/><polygon id="Path" fill="#4CADE6" points="16.048 .036 20.028 .036 20.028 1.036 16.39 1.036 1.024 16.402 1.024 20.036 .024 20.036 .024 16.036 .076 16.036 .026 15.986 16.012 0"/><polygon id="Path" fill="#4CADE6" points="1.002 131.01 .002 131.01 .002 134.01 .002 135.01 1.002 135.01 4.002 135.01 4.002 134.01 1.002 134.01"/><polygon id="Path" fill="#4CADE6" points="399.002 131.01 400.002 131.01 400.002 134.01 400.002 135.01 399.002 135.01 396.002 135.01 396.002 134.01 399.002 134.01"/><polygon id="Path" fill="#4CADE6" points="399 4.01 400 4.01 400 1.01 400 .01 399 .01 396 .01 396 1.01 399 1.01"/><polygon id="Path" fill="#4CADE6" points="134 1.01 134 .01 131 .01 130 .01 127 .01 127 1.01 130 1.01 130 4.01 131 4.01 131 1.01"/><polygon id="Path" fill="#4CADE6" points="134 40.01 134 41.01 131 41.01 131 44.01 130 44.01 130 41.01 127 41.01 127 40.01 130 40.01 130 37.01 131 37.01 131 40.01"/><polygon id="Path" fill="#4CADE6" points="134 134.01 134 135.01 131 135.01 130 135.01 127 135.01 127 134.01 130 134.01 130 131.01 131 131.01 131 134.01"/><polygon id="Path" fill="#4CADE6" points="399.002 37.01 400.002 37.01 400.002 40.01 400.002 41.01 400.002 44.01 399.002 44.01 399.002 41.01 396.002 41.01 396.002 40.01 399.002 40.01"/></g></g></svg>